<?xml version="1.0" standalone="no"?>
<!DOCTYPE svg PUBLIC "-//W3C//DTD SVG 20010904//EN"
 "http://www.w3.org/TR/2001/REC-SVG-20010904/DTD/svg10.dtd">
<svg version="1.0" xmlns="http://www.w3.org/2000/svg"
 width="184.000000pt" height="184.000000pt" viewBox="0 0 184.000000 184.000000"
 preserveAspectRatio="xMidYMid meet">
<metadata>
Created by potrace 1.11, written by Peter Selinger 2001-2013
</metadata>
<g transform="translate(0.000000,184.000000) scale(0.100000,-0.100000)"
fill="#000000" stroke="none">
<path d="M535 1544 c-38 -7 -85 -17 -103 -23 -70 -21 -169 -86 -239 -157 -200
-202 -229 -504 -69 -744 42 -64 177 -193 244 -234 32 -19 93 -47 137 -62 68
-23 97 -27 190 -27 143 0 256 33 358 105 15 11 27 15 27 9 0 -14 55 -37 111
-46 183 -33 357 47 495 226 45 58 124 195 124 215 0 27 -277 41 -396 20 -44
-8 -86 -17 -94 -20 -13 -5 -15 6 -12 78 7 166 -56 314 -187 446 -92 92 -128
119 -206 158 -119 59 -253 79 -380 56z m253 -23 c62 -17 192 -75 192 -86 0 -3
-12 1 -27 9 -95 48 -276 67 -393 41 -99 -23 -216 -85 -286 -152 -75 -72 -108
-117 -144 -196 -63 -140 -68 -282 -16 -439 12 -38 21 -68 19 -68 -2 0 -21 37
-42 83 -76 162 -74 327 4 492 53 112 158 215 283 279 101 52 286 69 410 37z
m43 -125 c107 -28 188 -80 236 -153 8 -13 19 -21 23 -18 5 3 20 -9 33 -27 58
-76 98 -179 81 -206 -17 -26 -29 -24 -32 5 -5 75 -50 204 -75 220 -6 4 -8 1
-4 -8 42 -98 58 -147 63 -197 l7 -59 -53 -69 c-28 -38 -61 -76 -72 -85 -11 -9
-22 -32 -25 -56 -3 -23 -11 -44 -18 -47 -18 -7 -25 62 -8 79 17 18 16 25 -2
25 -9 0 -12 6 -9 15 10 25 -10 16 -23 -10 -6 -14 -7 -25 -2 -25 5 0 9 -21 9
-46 0 -36 4 -47 18 -51 16 -4 18 -13 15 -56 -5 -61 -24 -81 -118 -127 -172
-85 -381 -72 -531 31 -86 59 -118 104 -159 224 -54 159 5 374 137 501 88 85
198 140 303 151 28 3 51 6 53 8 7 6 101 -6 153 -19z m319 -636 c0 -5 -5 -10
-11 -10 -5 0 -7 5 -4 10 3 6 8 10 11 10 2 0 4 -4 4 -10z m389 -45 c-2 -2 -28
-13 -58 -25 -30 -11 -81 -36 -113 -55 -50 -30 -58 -32 -58 -16 0 18 64 53 155
83 39 13 81 21 74 13z m-537 -241 c-9 -7 -40 -24 -67 -38 -166 -84 -369 -72
-532 31 -58 36 -73 54 -20 24 162 -94 430 -74 580 43 l31 25 12 -36 c11 -32
11 -38 -4 -49z"/>
<path d="M575 1350 c-3 -5 1 -10 10 -10 9 0 13 5 10 10 -3 6 -8 10 -10 10 -2
0 -7 -4 -10 -10z"/>
<path d="M790 1340 c0 -5 -11 -10 -24 -10 -14 0 -28 -4 -31 -10 -6 -10 8 -12
75 -12 54 0 61 2 55 12 -3 6 -20 10 -36 10 -18 0 -28 4 -24 10 3 6 1 10 -4 10
-6 0 -11 -4 -11 -10z"/>
<path d="M520 1320 c0 -11 12 -13 48 -10 12 1 22 -3 22 -9 0 -6 -3 -10 -7 -8
-9 2 -13 -6 -13 -29 0 -13 7 -15 29 -11 29 6 61 -15 61 -41 0 -7 14 -12 30
-12 18 0 30 5 30 13 0 23 33 45 61 41 20 -3 28 1 32 16 6 24 -9 36 -27 20 -10
-8 -26 -8 -60 1 -33 8 -54 8 -77 0 -42 -14 -49 -14 -49 4 0 8 3 14 8 14 22 -4
42 2 37 11 -3 6 -33 10 -66 10 -33 0 -59 -4 -59 -10z"/>
<path d="M606 1221 c-20 -21 -34 -69 -28 -93 6 -31 22 -19 22 16 0 18 9 45 20
59 23 30 11 46 -14 18z"/>
<path d="M746 1233 c-3 -4 3 -16 15 -29 11 -12 21 -36 23 -53 3 -37 13 -50 22
-27 15 39 -37 132 -60 109z"/>
<path d="M670 1178 c0 -4 12 -8 27 -8 21 0 24 -3 15 -12 -9 -9 -18 -9 -37 0
-15 7 -25 8 -25 2 0 -6 -8 -10 -17 -10 -30 0 24 -31 55 -32 29 -1 78 20 69 29
-3 2 -14 0 -25 -6 -26 -14 -69 -14 -77 -1 -4 6 6 7 24 4 38 -8 67 11 48 30
-13 13 -57 16 -57 4z"/>
<path d="M538 1078 c16 -16 16 -148 0 -148 -21 0 1 -13 27 -15 14 -2 25 1 25
6 0 5 -4 9 -10 9 -6 0 -10 33 -10 80 0 76 -1 80 -22 80 -17 0 -19 -3 -10 -12z"/>
<path d="M850 1075 c0 -9 5 -15 11 -13 6 2 11 8 11 13 0 5 -5 11 -11 13 -6 2
-11 -4 -11 -13z"/>
<path d="M238 1030 c-9 -6 -19 -24 -23 -40 -13 -59 40 -100 78 -61 10 10 7 11
-15 6 -35 -9 -56 25 -39 61 10 24 41 34 41 14 0 -5 4 -10 8 -10 5 0 9 7 9 15
0 8 -4 15 -8 15 -4 0 -13 2 -21 5 -7 2 -21 0 -30 -5z"/>
<path d="M337 1027 c-38 -27 -23 -117 18 -117 46 0 72 81 37 113 -22 20 -33
21 -55 4z m48 -38 c5 -22 3 -36 -8 -47 -31 -30 -62 29 -34 66 16 21 35 13 42
-19z"/>
<path d="M443 1033 c-15 -6 -17 -33 -3 -33 6 0 10 5 10 11 0 18 33 5 36 -13 1
-13 -5 -18 -21 -18 -31 0 -45 -20 -34 -47 10 -26 13 -27 40 -13 12 7 19 7 19
1 0 -6 6 -8 14 -5 11 4 13 12 7 27 -4 12 -7 35 -6 50 2 35 -27 54 -62 40z m42
-75 c9 -8 -23 -30 -34 -24 -14 9 -3 34 14 32 8 -1 17 -5 20 -8z"/>
<path d="M644 1028 c-3 -4 0 -8 5 -8 6 0 11 -20 11 -45 0 -25 -5 -45 -11 -45
-5 0 -8 -4 -4 -9 3 -6 14 -9 24 -8 15 1 17 8 13 48 -3 37 -1 47 13 53 10 3 20
5 22 2 9 -8 10 -42 2 -68 -5 -19 -3 -28 8 -32 22 -9 36 3 23 19 -21 25 5 96
29 81 14 -9 14 -86 0 -86 -5 0 -8 -4 -5 -9 4 -5 14 -8 23 -7 14 2 17 12 14 52
-3 61 -22 84 -53 65 -17 -11 -22 -11 -29 1 -7 10 -12 11 -29 0 -11 -7 -20 -8
-20 -4 0 11 -29 11 -36 0z"/>
<path d="M845 975 c0 -50 3 -62 15 -60 8 2 19 4 24 4 5 1 3 8 -4 15 -6 8 -11
28 -10 43 3 47 1 60 -12 60 -9 0 -13 -19 -13 -62z"/>
<path d="M903 1028 c-2 -5 1 -8 6 -8 6 0 11 -20 11 -45 0 -28 -5 -45 -12 -45
-17 0 0 -13 21 -17 16 -2 18 3 13 43 -5 47 7 68 33 58 12 -5 14 -62 2 -80 -4
-7 0 -15 9 -18 24 -9 36 2 24 23 -5 10 -7 29 -5 41 7 38 -9 54 -55 55 -23 0
-44 -3 -47 -7z"/>
<path d="M1062 1033 c-19 -7 -33 -50 -26 -79 8 -29 37 -47 64 -39 29 9 25 27
-4 19 -18 -4 -27 -1 -36 15 -10 19 -8 21 24 21 40 0 51 18 30 49 -15 21 -27
24 -52 14z m36 -31 c2 -7 -7 -12 -23 -12 -24 0 -26 2 -15 15 14 17 31 16 38
-3z"/>
<path d="M230 835 c0 -8 5 -15 10 -15 6 0 10 7 10 15 0 8 -4 15 -10 15 -5 0
-10 -7 -10 -15z"/>
<path d="M715 841 c-3 -5 -1 -12 4 -15 5 -3 11 1 15 9 6 16 -9 21 -19 6z"/>
<path d="M648 813 c-2 -10 -2 -43 1 -73 5 -41 10 -56 24 -58 9 -2 17 2 17 8 0
6 -4 8 -10 5 -6 -4 -10 11 -10 39 0 26 5 47 13 50 10 5 10 7 0 12 -7 3 -13 12
-13 20 0 20 -17 17 -22 -3z"/>
<path d="M228 778 c9 -27 8 -70 -2 -87 -5 -7 1 -11 14 -11 16 0 20 4 16 16 -3
9 -6 36 -6 60 0 32 -4 44 -15 44 -11 0 -13 -6 -7 -22z"/>
<path d="M279 787 c15 -15 14 -80 -1 -95 -9 -9 -6 -12 16 -12 21 0 26 3 19 13
-10 12 -9 74 1 84 3 3 11 3 19 0 11 -4 12 -16 7 -51 -6 -38 -4 -46 9 -46 14 0
15 9 11 58 l-5 57 -44 2 c-32 1 -40 -2 -32 -10z"/>
<path d="M384 783 c2 -10 10 -37 17 -60 12 -42 26 -55 33 -30 2 6 11 33 19 60
14 45 13 47 -5 47 -14 0 -18 -5 -14 -15 3 -8 3 -29 -1 -46 -7 -38 -23 -19 -23
29 0 22 -5 32 -16 32 -10 0 -14 -6 -10 -17z"/>
<path d="M491 787 c-16 -20 -20 -59 -8 -84 11 -25 51 -32 63 -11 5 8 0 9 -15
5 -14 -3 -24 1 -31 13 -11 21 -5 27 28 24 23 -1 29 17 16 50 -7 19 -37 21 -53
3z m39 -22 c0 -8 -9 -15 -20 -15 -13 0 -18 5 -14 15 4 8 12 15 20 15 8 0 14
-7 14 -15z"/>
<path d="M566 784 c-9 -22 -9 -23 20 -49 27 -25 25 -57 -2 -34 -19 16 -30 4
-15 -15 15 -18 38 -11 52 15 8 15 5 24 -17 44 -15 14 -23 29 -18 36 5 9 11 7
21 -6 12 -18 13 -18 13 3 0 17 -6 22 -24 22 -13 0 -27 -7 -30 -16z"/>
<path d="M707 788 c14 -16 14 -78 0 -95 -7 -10 -3 -13 17 -13 19 0 25 4 19 13
-4 6 -8 32 -8 57 0 36 -4 45 -20 49 -16 3 -17 1 -8 -11z"/>
<path d="M773 788 c-5 -7 -9 -44 -8 -82 1 -54 5 -72 18 -80 22 -14 51 3 55 33
3 16 -5 25 -30 36 -28 12 -31 20 -6 17 11 -2 25 22 31 56 6 30 5 32 -22 32
-16 0 -33 -6 -38 -12z m41 -41 c-3 -9 -10 -17 -15 -17 -14 0 -22 27 -15 47 6
15 8 15 22 2 8 -9 12 -23 8 -32z m6 -87 c0 -13 -7 -20 -20 -20 -13 0 -20 7
-20 20 0 13 7 20 20 20 13 0 20 -7 20 -20z"/>
<path d="M867 793 c-4 -3 -7 -13 -7 -22 1 -13 2 -13 11 2 8 14 14 16 25 6 20
-17 17 -28 -10 -35 -24 -6 -39 -33 -27 -52 3 -5 23 -10 44 -10 28 0 35 3 28
12 -6 7 -9 25 -7 41 1 17 -1 38 -6 48 -9 17 -39 23 -51 10z m32 -84 c-7 -14
-14 -18 -21 -11 -13 13 -2 32 18 32 12 0 13 -4 3 -21z"/>
</g>
</svg>
